<svg width="54" height="63" viewBox="0 0 54 63" fill="none" xmlns="http://www.w3.org/2000/svg">
<path d="M0.517868 31.1526L8.82541 27.5181V18.1721L18.1714 23.3643L26.4789 19.7298L8.82541 9.34534L0.517868 13.4991V31.1526Z" fill="black"/>
<path d="M53.999 13.4999L46.7299 9.86532L37.3839 15.0575L43.6146 18.1729L0 38.4225V48.8069L6.74988 51.9223L16.6151 47.7685L10.3844 44.1339L53.999 24.4035V13.4999Z" fill="black"/>
<path d="M54.0008 47.7689V31.1538L46.2125 34.2691V43.6151L36.3473 38.9421L28.0397 43.6151L46.2125 52.4419L54.0008 47.7689Z" fill="black"/>
<path d="M27.5175 52.9608L22.8445 50.8839L14.0177 55.0377L27.5175 62.3068L41.0173 55.0377L33.2289 50.8839L27.5175 52.9608Z" fill="black"/>
<path d="M27.5175 0L14.0177 6.74988L22.3253 11.9421L27.5175 9.34599L31.6713 11.9421L41.0173 7.78832L27.5175 0Z" fill="black"/>
</svg>
