<svg width="47" height="49" viewBox="0 0 47 49" fill="none" xmlns="http://www.w3.org/2000/svg">
<path d="M34.8029 45.1029L22.2996 26.9366L20.519 24.3507L6.01037 3.27085H12.2513L23.9847 20.3186L25.7651 22.9046L41.0439 45.1029H34.8029ZM43.624 43.3284L27.8759 20.4496L26.0955 17.862L14.8303 1.49596L13.8966 0.139674H0.0540619L3.43002 5.04534L18.4083 26.8084L20.1888 29.3932L32.2237 46.8794L33.1574 48.2341H47L43.624 43.3284Z" fill="black"/>
<path d="M20.5191 24.3507L22.2996 26.9366L20.1889 29.3932L3.99365 48.2341H0L18.4083 26.8084L20.5191 24.3507Z" fill="black"/>
<path d="M45.3335 0.139652L27.8759 20.4495L25.7651 22.9045L23.9846 20.3186L26.0954 17.862L37.921 4.09773L41.3398 0.139652H45.3335Z" fill="black"/>
</svg>
